<svg width="20" height="27" viewBox="0 0 20 27" fill="none" xmlns="http://www.w3.org/2000/svg">
<path d="M11.2344 26C13.9062 22.6562 20 14.5521 20 10C20 4.47917 15.5208 0 10 0C4.47917 0 0 4.47917 0 10C0 14.5521 6.09375 22.6562 8.76562 26C9.40625 26.7969 10.5938 26.7969 11.2344 26ZM10 6.66667C10.8841 6.66667 11.7319 7.01786 12.357 7.64298C12.9821 8.2681 13.3333 9.11594 13.3333 10C13.3333 10.8841 12.9821 11.7319 12.357 12.357C11.7319 12.9821 10.8841 13.3333 10 13.3333C9.11594 13.3333 8.2681 12.9821 7.64298 12.357C7.01786 11.7319 6.66667 10.8841 6.66667 10C6.66667 9.11594 7.01786 8.2681 7.64298 7.64298C8.2681 7.01786 9.11594 6.66667 10 6.66667Z" fill="white"/>
</svg>
