<svg width="25" height="25" viewBox="0 0 25 25" fill="none" xmlns="http://www.w3.org/2000/svg">
<path d="M20.3135 10.1567C20.3135 12.3981 19.5859 14.4685 18.3603 16.1483L24.5422 22.3351C25.1526 22.9455 25.1526 23.9367 24.5422 24.5471C23.9318 25.1575 22.9406 25.1575 22.3302 24.5471L16.1483 18.3603C14.4685 19.5908 12.3981 20.3135 10.1567 20.3135C4.54612 20.3135 0 15.7674 0 10.1567C0 4.54612 4.54612 0 10.1567 0C15.7674 0 20.3135 4.54612 20.3135 10.1567ZM10.1567 17.1883C11.0801 17.1883 11.9945 17.0065 12.8476 16.6531C13.7007 16.2997 14.4759 15.7818 15.1288 15.1288C15.7818 14.4759 16.2997 13.7007 16.6531 12.8476C17.0065 11.9945 17.1883 11.0801 17.1883 10.1567C17.1883 9.23334 17.0065 8.31898 16.6531 7.46587C16.2997 6.61276 15.7818 5.8376 15.1288 5.18466C14.4759 4.53171 13.7007 4.01377 12.8476 3.6604C11.9945 3.30703 11.0801 3.12515 10.1567 3.12515C9.23334 3.12515 8.31898 3.30703 7.46587 3.6604C6.61276 4.01377 5.8376 4.53171 5.18466 5.18466C4.53171 5.8376 4.01377 6.61276 3.6604 7.46587C3.30703 8.31898 3.12515 9.23334 3.12515 10.1567C3.12515 11.0801 3.30703 11.9945 3.6604 12.8476C4.01377 13.7007 4.53171 14.4759 5.18466 15.1288C5.8376 15.7818 6.61276 16.2997 7.46587 16.6531C8.31898 17.0065 9.23334 17.1883 10.1567 17.1883Z" fill="#C4B466"/>
</svg>
